HIERARCHY
ROOT Hips
{
	OFFSET -131.695496 91.669037 -190.067505
	CHANNELS 6 Xposition Yposition Zposition Zrotation Yrotation Xrotation
	JOINT LeftUpLeg
	{
		OFFSET 0.103456 1.857829 10.548507
		CHANNELS 3 Zrotation Yrotation Xrotation
		JOINT LeftLeg
		{
			OFFSET 43.500000 -0.000031 0.000008
			CHANNELS 3 Zrotation Yrotation Xrotation
			JOINT LeftFoot
			{
				OFFSET 42.372200 0.000015 -0.000002
				CHANNELS 3 Zrotation Yrotation Xrotation
				JOINT LeftToe
				{
					OFFSET 17.299992 -0.000004 0.000000
					CHANNELS 3 Zrotation Yrotation Xrotation
					End Site
					{
						OFFSET 0.000000 0.000000 0.000000
					}
				}
			}
		}
	}
	JOINT RightUpLeg
	{
		OFFSET 0.103460 1.857824 -10.548508
		CHANNELS 3 Zrotation Yrotation Xrotation
		JOINT RightLeg
		{
			OFFSET 43.500042 -0.000019 0.000004
			CHANNELS 3 Zrotation Yrotation Xrotation
			JOINT RightFoot
			{
				OFFSET 42.372265 -0.000019 0.000016
				CHANNELS 3 Zrotation Yrotation Xrotation
				JOINT RightToe
				{
					OFFSET 17.299999 -0.000001 -0.000006
					CHANNELS 3 Zrotation Yrotation Xrotation
					End Site
					{
						OFFSET 0.000000 0.000000 0.000000
					}
				}
			}
		}
	}
	JOINT Spine
	{
		OFFSET 6.901965 -2.603734 0.000001
		CHANNELS 3 Zrotation Yrotation Xrotation
		JOINT Spine1
		{
			OFFSET 12.588102 0.000006 -0.000006
			CHANNELS 3 Zrotation Yrotation Xrotation
			JOINT Spine2
			{
				OFFSET 12.343201 -0.000002 0.000010
				CHANNELS 3 Zrotation Yrotation Xrotation
				JOINT Neck
				{
					OFFSET 25.832899 -0.000004 -0.000009
					CHANNELS 3 Zrotation Yrotation Xrotation
					JOINT Head
					{
						OFFSET 11.766603 0.000001 0.000007
						CHANNELS 3 Zrotation Yrotation Xrotation
						End Site
						{
							OFFSET 0.000000 0.000000 0.000000
						}
					}
				}
				JOINT LeftShoulder
				{
					OFFSET 19.745899 -1.480371 6.000098
					CHANNELS 3 Zrotation Yrotation Xrotation
					JOINT LeftArm
					{
						OFFSET 11.284129 -0.000011 -0.000015
						CHANNELS 3 Zrotation Yrotation Xrotation
						JOINT LeftForeArm
						{
							OFFSET 33.000046 0.000011 0.000030
							CHANNELS 3 Zrotation Yrotation Xrotation
							JOINT LeftHand
							{
								OFFSET 25.200010 0.000012 -0.000000
								CHANNELS 3 Zrotation Yrotation Xrotation
								End Site
								{
									OFFSET 0.000000 0.000000 0.000000
								}
							}
						}
					}
				}
				JOINT RightShoulder
				{
					OFFSET 19.746092 -1.480375 -6.000075
					CHANNELS 3 Zrotation Yrotation Xrotation
					JOINT RightArm
					{
						OFFSET 11.284135 -0.000010 -0.000014
						CHANNELS 3 Zrotation Yrotation Xrotation
						JOINT RightForeArm
						{
							OFFSET 33.000092 0.000016 0.000013
							CHANNELS 3 Zrotation Yrotation Xrotation
							JOINT RightHand
							{
								OFFSET 25.199780 0.000135 0.000426
								CHANNELS 3 Zrotation Yrotation Xrotation
								End Site
								{
									OFFSET 0.000000 0.000000 0.000000
								}
							}
						}
					}
				}
			}
		}
	}
}
MOTION
Frames: 5
Frame Time: 0.033333
273.621796 90.675484 -487.984497 92.562717 -3.962358 166.412969 175.368249 1.260408 177.505087 -19.090923 -3.234798 3.260212 77.408692 -2.020876 0.632530 21.454551 0.003091 -0.000000 131.768938 0.396302 -175.998375 -76.944260 0.010289 5.069658 70.761887 -3.443950 0.648404 21.454562 -0.003106 -0.000020 9.922095 -0.370875 -0.773642 9.836133 -0.674680 -1.576007 9.518157 -0.684052 -1.571896 17.341524 -7.617500 -10.160542 -13.412453 19.230546 -17.199917 113.523044 -81.754571 65.463026 -66.625429 38.594551 -52.885660 -125.058701 1.451270 3.708244 -7.786042 -16.140184 11.067453 171.478962 82.156002 -7.064015 -53.081724 -29.507486 60.377288 -135.189784 -4.314637 -3.939956 -11.931108 18.293803 -17.659645
277.739197 90.830276 -487.711395 91.332607 -4.695131 164.734983 179.009901 2.119902 176.805293 -14.568001 -3.856175 2.042328 77.167873 -1.112494 0.739302 21.454553 0.003091 0.000000 130.996949 0.969102 -174.643552 -65.383106 1.388897 4.925652 71.257028 -3.423306 0.553057 21.454558 -0.003106 -0.000019 9.419795 -0.228732 -1.161718 8.830550 -0.368250 -2.337470 8.512746 -0.382221 -2.335198 16.386619 -4.720777 -9.472935 -11.704269 17.868618 -15.680899 107.984676 -81.585968 71.028018 -66.647463 37.441212 -52.270772 -125.334805 1.218347 3.734908 -8.696351 -16.726461 12.033737 173.613081 81.821848 -4.914018 -53.046360 -27.913680 59.943885 -134.291204 -4.332347 -3.907471 -12.352011 18.340231 -16.851345
282.206299 90.283401 -487.334686 91.613409 -5.665376 162.791016 -177.082066 3.955703 175.005402 -12.709467 -3.785366 1.227496 78.261735 -0.539552 0.725748 21.454548 0.003090 -0.000001 133.273096 1.363693 -171.138080 -52.640637 0.715785 2.574005 72.172724 -1.861881 0.132456 21.454562 -0.003108 -0.000019 9.248046 -0.213660 -1.503475 8.487480 -0.316625 -3.018520 8.169839 -0.334701 -3.016545 15.129573 -2.993159 -9.146194 -9.839168 16.862120 -14.664018 104.570162 -81.421237 74.461104 -66.615996 35.666835 -51.994815 -125.709796 1.094057 3.757899 -9.153397 -17.085657 12.884958 176.512005 81.865445 -1.977992 -53.199555 -26.611172 59.293753 -133.582900 -4.262321 -3.887227 -13.833553 19.122330 -18.429490
286.829987 89.216217 -486.751190 92.617618 -6.449922 160.288940 -173.642028 5.748796 175.210690 -13.462215 -4.108183 0.044631 81.218326 0.261266 0.645221 21.454553 0.003092 -0.000000 137.533358 0.669207 -168.445743 -40.122659 0.397919 0.319224 72.642962 -0.187552 0.303366 21.454560 -0.003114 -0.000016 9.207106 -0.298269 -1.713880 8.408555 -0.471389 -3.444860 8.091065 -0.492034 -3.441949 14.145954 -1.708588 -8.797040 -8.522842 15.752035 -13.708617 98.506744 -81.675033 80.501982 -67.001642 34.748201 -52.910757 -125.850907 1.137214 3.760366 -9.222596 -16.878722 14.377056 -178.704059 81.690094 2.863072 -53.850653 -26.015429 58.964921 -133.079611 -4.262533 -3.869340 -13.992424 18.576236 -19.220205
291.431793 87.856163 -485.994904 93.955201 -6.638094 157.551031 -171.046952 6.980700 175.961943 -16.786377 -4.892386 -0.990627 84.803055 1.021463 0.877768 21.454546 0.003089 -0.000001 142.417080 -1.142899 -168.156334 -31.219046 0.669097 1.808901 72.823006 -1.098973 0.876762 21.454560 -0.003106 -0.000019 9.230877 -0.336917 -1.777245 8.457540 -0.543217 -3.574327 8.140081 -0.564641 -3.570980 14.074529 -0.977297 -8.520404 -7.904910 15.009631 -13.081428 94.059580 -82.064545 84.910159 -67.289364 34.563418 -53.466472 -125.457297 0.945113 3.755759 -10.161528 -16.974731 16.002109 -176.632066 81.781618 4.961925 -53.970768 -26.934306 58.414640 -132.790817 -4.135684 -3.867586 -14.686346 18.888641 -19.685076
